<!-- Adapted from logo.svg -->
<svg viewBox="0 0 125 125" xmlns="http://www.w3.org/2000/svg">
  <g>
    <path d="M 63.044 10.641 H 113.044 V 60.641 H 63.044 V 10.641 Z" style="stroke: rgb(0, 0, 0); fill: rgb(200, 200, 200);"></path>
    <path d="M 9.044 64.359 H 59.044 V 114.359 H 9.044 V 64.359 Z" style="stroke: rgb(0, 0, 0); fill: rgb(200, 200, 200);"></path>
    <path d="M 9.044 10.308 L 59.044 10.308 L 59.044 60.308 L 9.044 60.308 L 9.044 10.308 Z" style="stroke: rgb(0, 0, 0); fill: none;"></path>
    <path d="M 63.044 64.359 H 113.044 V 114.359 H 63.044 V 64.359 Z" style="stroke: rgb(0, 0, 0); fill: none;"></path>
    <path d="M 46.358 20.062 L 45.242 20.962 C 46.61 22.366 47.834 23.986 48.986 25.786 L 50.174 24.922 C 49.166 23.23 47.87 21.61 46.358 20.062 Z M 42.794 22.69 L 41.678 23.59 C 43.046 24.994 44.306 26.614 45.422 28.414 L 46.61 27.55 C 45.566 25.822 44.306 24.202 42.794 22.69 Z M 38.15 24.382 L 36.35 25.39 C 38.438 28.558 40.49 32.482 42.506 37.126 C 44.558 41.914 46.07 46.378 47.042 50.482 L 49.13 50.014 C 48.122 45.802 46.574 41.266 44.486 36.406 C 42.47 31.654 40.346 27.658 38.15 24.382 Z M 26.342 25.174 C 25.982 29.71 25.118 34.066 23.678 38.242 C 22.166 42.49 20.15 46.27 17.666 49.546 L 19.646 50.554 C 22.166 47.134 24.182 43.21 25.73 38.818 C 27.17 34.57 28.07 30.106 28.466 25.426 L 26.342 25.174 Z" style="fill: rgb(51, 51, 51);"></path>
    <path d="M 88.797 91.591 C 90.705 92.815 92.829 94.435 95.133 96.415 C 97.977 98.791 100.173 100.843 101.721 102.607 L 103.377 101.203 C 101.649 99.259 99.381 97.099 96.537 94.795 C 94.305 92.923 92.145 91.303 90.129 89.935 C 92.865 86.335 95.205 82.015 97.185 76.975 L 95.817 76.003 L 76.629 76.003 L 76.629 77.983 L 94.413 77.983 C 90.201 88.423 83.073 96.091 73.029 100.987 L 74.325 102.715 C 80.085 99.799 84.837 96.163 88.581 91.843 C 88.653 91.771 88.725 91.663 88.797 91.591 Z" style="fill: rgb(51, 51, 51);"></path>
  </g>
</svg>