<!-- Created with https://boxy-svg.com/ -->
<!-- Visual display verified at https://editsvgcode.com/ -->
<svg viewBox="0 0 325 100" xmlns="http://www.w3.org/2000/svg">
  <g transform="matrix(1.232432, 0, 0, 1.232432, -21.219824, -11.6216)">
    <path d="M 67.86 50 C 67.86 58.904 65.583 67.042 61.926 72.892 C 58.256 78.764 53.028 82.5 47.36 82.5 C 41.692 82.5 36.464 78.764 32.794 72.892 C 29.137 67.042 26.86 58.904 26.86 50 C 26.86 41.096 29.137 32.958 32.794 27.108 C 36.464 21.236 41.692 17.5 47.36 17.5 C 53.028 17.5 58.256 21.236 61.926 27.108 C 65.583 32.958 67.86 41.096 67.86 50 Z M 61.078 27.638 C 57.509 21.927 52.737 18.5 47.36 18.5 C 41.983 18.5 37.211 21.927 33.642 27.638 C 30.06 33.369 27.86 41.231 27.86 50 C 27.86 58.769 30.06 66.631 33.642 72.362 C 37.211 78.073 41.983 81.5 47.36 81.5 C 52.737 81.5 57.509 78.073 61.078 72.362 C 64.66 66.631 66.86 58.769 66.86 50 C 66.86 41.231 64.66 33.369 61.078 27.638 Z" style=""></path>
    <path d="M 276.89 292.914 L 276.146 293.514 C 277.058 294.45 277.874 295.53 278.642 296.73 L 279.434 296.154 C 278.762 295.026 277.898 293.946 276.89 292.914 Z M 274.514 294.666 L 273.77 295.266 C 274.682 296.202 275.522 297.282 276.266 298.482 L 277.058 297.906 C 276.362 296.754 275.522 295.674 274.514 294.666 Z M 271.418 295.794 L 270.218 296.466 C 271.61 298.578 272.978 301.194 274.322 304.29 C 275.69 307.482 276.698 310.458 277.346 313.194 L 278.738 312.882 C 278.066 310.074 277.034 307.05 275.642 303.81 C 274.298 300.642 272.882 297.978 271.418 295.794 Z M 263.546 296.322 C 263.306 299.346 262.73 302.25 261.77 305.034 C 260.762 307.866 259.418 310.386 257.762 312.57 L 259.082 313.242 C 260.762 310.962 262.106 308.346 263.138 305.418 C 264.098 302.586 264.698 299.61 264.962 296.49 L 263.546 296.322 Z" transform="matrix(1, 0, 0, 1, -221.755005, -266.358002)" style="fill: rgb(51, 51, 51);"></path>
    <path d="M 268.874 330.378 C 270.146 331.194 271.562 332.274 273.098 333.594 C 274.994 335.178 276.458 336.546 277.49 337.722 L 278.594 336.786 C 277.442 335.49 275.93 334.05 274.034 332.514 C 272.546 331.266 271.106 330.186 269.762 329.274 C 271.586 326.874 273.146 323.994 274.466 320.634 L 273.554 319.986 L 260.762 319.986 L 260.762 321.306 L 272.618 321.306 C 269.81 328.266 265.058 333.378 258.362 336.642 L 259.226 337.794 C 263.066 335.85 266.234 333.426 268.73 330.546 C 268.778 330.498 268.826 330.426 268.874 330.378 Z" transform="matrix(1, 0, 0, 1, -221.755005, -266.358002)" style="fill: rgb(51, 51, 51);"></path>
    <path d="M 90.128 62.269 Q 89.776 61.056 89.776 58.789 Q 88.651 60.617 86.7 61.619 Q 84.749 62.621 82.288 62.621 Q 79.651 62.621 78.043 61.188 Q 76.434 59.755 76.434 57.453 Q 76.434 54.833 78.798 53.26 Q 81.163 51.687 85.083 51.652 L 89.776 51.652 L 89.776 48.874 Q 89.776 46.484 88.273 45.165 Q 86.77 43.847 83.975 43.847 Q 81.374 43.847 79.633 45.183 Q 77.893 46.519 77.893 48.488 L 76.944 48.453 Q 76.944 46.132 78.983 44.515 Q 81.022 42.898 83.975 42.898 Q 87.051 42.898 88.862 44.436 Q 90.672 45.974 90.725 48.769 L 90.725 57.857 Q 90.725 60.986 91.217 62.111 L 91.217 62.269 Z M 82.288 61.689 Q 84.96 61.689 86.884 60.494 Q 88.809 59.298 89.776 57.136 L 89.776 52.619 L 85.381 52.619 Q 81.303 52.619 79.141 54.236 Q 77.383 55.554 77.383 57.523 Q 77.383 59.263 78.772 60.476 Q 80.161 61.689 82.288 61.689 Z M 97.788 47.679 Q 98.72 45.464 100.531 44.181 Q 102.341 42.898 104.538 42.898 Q 107.597 42.898 109.082 44.629 Q 110.568 46.361 110.585 49.859 L 110.585 62.269 L 109.636 62.269 L 109.636 49.824 Q 109.619 46.765 108.388 45.297 Q 107.158 43.83 104.486 43.83 Q 102.025 43.83 100.223 45.579 Q 98.421 47.328 97.788 50.087 L 97.788 62.269 L 96.839 62.269 L 96.839 43.249 L 97.788 43.249 Z M 117.721 62.269 L 116.772 62.269 L 116.772 43.249 L 117.721 43.249 Z M 116.28 37.308 Q 116.28 36.904 116.561 36.614 Q 116.842 36.324 117.247 36.324 Q 117.651 36.324 117.941 36.614 Q 118.231 36.904 118.231 37.308 Q 118.231 37.712 117.941 37.994 Q 117.651 38.275 117.247 38.275 Q 116.842 38.275 116.561 37.994 Q 116.28 37.712 116.28 37.308 Z M 132.348 43.935 L 131.118 43.83 Q 128.692 43.83 127.057 45.403 Q 125.423 46.976 124.913 49.806 L 124.913 62.269 L 123.964 62.269 L 123.964 43.249 L 124.913 43.249 L 124.913 47.205 Q 125.686 45.218 127.233 44.058 Q 128.78 42.898 131.118 42.898 Q 131.944 42.898 132.454 43.091 Z M 150.541 52.935 Q 150.541 57.382 148.625 60.001 Q 146.709 62.621 143.405 62.621 Q 141.26 62.621 139.573 61.733 Q 137.885 60.845 136.918 59.263 L 136.918 62.269 L 135.969 62.269 L 135.969 35.269 L 136.918 35.269 L 136.918 46.712 Q 137.92 44.832 139.564 43.865 Q 141.207 42.898 143.369 42.898 Q 146.709 42.898 148.625 45.456 Q 150.541 48.013 150.541 52.636 Z M 149.557 52.566 Q 149.557 48.47 147.931 46.159 Q 146.305 43.847 143.387 43.847 Q 140.996 43.847 139.335 45.078 Q 137.674 46.308 136.918 48.734 L 136.918 57.453 Q 137.674 59.474 139.335 60.573 Q 140.996 61.671 143.422 61.671 Q 146.358 61.671 147.957 59.333 Q 149.557 56.996 149.557 52.566 Z M 167.995 62.269 Q 167.644 61.056 167.644 58.789 Q 166.519 60.617 164.568 61.619 Q 162.617 62.621 160.156 62.621 Q 157.519 62.621 155.911 61.188 Q 154.302 59.755 154.302 57.453 Q 154.302 54.833 156.666 53.26 Q 159.031 51.687 162.951 51.652 L 167.644 51.652 L 167.644 48.874 Q 167.644 46.484 166.141 45.165 Q 164.638 43.847 161.843 43.847 Q 159.242 43.847 157.501 45.183 Q 155.761 46.519 155.761 48.488 L 154.812 48.453 Q 154.812 46.132 156.851 44.515 Q 158.89 42.898 161.843 42.898 Q 164.919 42.898 166.73 44.436 Q 168.54 45.974 168.593 48.769 L 168.593 57.857 Q 168.593 60.986 169.085 62.111 L 169.085 62.269 Z M 160.156 61.689 Q 162.828 61.689 164.752 60.494 Q 166.677 59.298 167.644 57.136 L 167.644 52.619 L 163.249 52.619 Q 159.171 52.619 157.009 54.236 Q 155.251 55.554 155.251 57.523 Q 155.251 59.263 156.64 60.476 Q 158.029 61.689 160.156 61.689 Z M 175.656 47.679 Q 176.588 45.464 178.399 44.181 Q 180.209 42.898 182.406 42.898 Q 185.465 42.898 186.95 44.629 Q 188.436 46.361 188.453 49.859 L 188.453 62.269 L 187.504 62.269 L 187.504 49.824 Q 187.486 46.765 186.256 45.297 Q 185.026 43.83 182.354 43.83 Q 179.893 43.83 178.091 45.579 Q 176.289 47.328 175.656 50.087 L 175.656 62.269 L 174.707 62.269 L 174.707 43.249 L 175.656 43.249 Z" style="fill: rgb(51, 51, 51);"></path>
    <path d="M 211.334 52.953 Q 211.334 57.382 209.356 60.001 Q 207.379 62.621 203.916 62.621 Q 200.576 62.621 198.713 60.212 L 198.502 62.269 L 194.635 62.269 L 194.635 35.269 L 198.906 35.269 L 198.906 45.078 Q 200.752 42.898 203.881 42.898 Q 207.361 42.898 209.348 45.482 Q 211.334 48.066 211.334 52.707 Z M 207.062 52.583 Q 207.062 49.49 205.973 47.943 Q 204.883 46.396 202.809 46.396 Q 200.031 46.396 198.906 48.822 L 198.906 56.662 Q 200.049 59.14 202.844 59.14 Q 204.848 59.14 205.937 57.646 Q 207.027 56.152 207.062 53.128 Z M 226.273 62.269 Q 225.991 61.724 225.78 60.494 Q 223.741 62.621 220.788 62.621 Q 217.923 62.621 216.112 60.986 Q 214.302 59.351 214.302 56.943 Q 214.302 53.902 216.561 52.276 Q 218.819 50.65 223.021 50.65 L 225.64 50.65 L 225.64 49.402 Q 225.64 47.925 224.814 47.038 Q 223.987 46.15 222.3 46.15 Q 220.841 46.15 219.909 46.879 Q 218.978 47.609 218.978 48.734 L 214.706 48.734 Q 214.706 47.169 215.743 45.807 Q 216.78 44.445 218.564 43.671 Q 220.349 42.898 222.546 42.898 Q 225.886 42.898 227.872 44.577 Q 229.858 46.255 229.911 49.296 L 229.911 57.874 Q 229.911 60.441 230.632 61.97 L 230.632 62.269 Z M 221.579 59.193 Q 222.845 59.193 223.961 58.578 Q 225.077 57.962 225.64 56.925 L 225.64 53.339 L 223.337 53.339 Q 220.964 53.339 219.769 54.165 Q 218.573 54.992 218.573 56.503 Q 218.573 57.734 219.391 58.463 Q 220.208 59.193 221.579 59.193 Z M 245.046 57.101 Q 245.046 55.958 244.105 55.361 Q 243.165 54.763 240.985 54.306 Q 238.805 53.849 237.346 53.146 Q 234.147 51.599 234.147 48.664 Q 234.147 46.203 236.221 44.55 Q 238.296 42.898 241.495 42.898 Q 244.905 42.898 247.006 44.585 Q 249.106 46.273 249.106 48.962 L 244.835 48.962 Q 244.835 47.732 243.921 46.915 Q 243.007 46.097 241.495 46.097 Q 240.089 46.097 239.201 46.748 Q 238.313 47.398 238.313 48.488 Q 238.313 49.472 239.139 50.017 Q 239.966 50.562 242.479 51.116 Q 244.993 51.669 246.425 52.434 Q 247.858 53.199 248.552 54.271 Q 249.247 55.343 249.247 56.873 Q 249.247 59.439 247.12 61.03 Q 244.993 62.621 241.548 62.621 Q 239.21 62.621 237.382 61.777 Q 235.553 60.933 234.534 59.457 Q 233.514 57.98 233.514 56.275 L 237.663 56.275 Q 237.751 57.787 238.805 58.604 Q 239.86 59.421 241.6 59.421 Q 243.288 59.421 244.167 58.78 Q 245.046 58.138 245.046 57.101 Z M 264.487 60.406 Q 262.606 62.621 259.143 62.621 Q 256.049 62.621 254.458 60.81 Q 252.868 58.999 252.868 55.572 L 252.868 43.249 L 257.139 43.249 L 257.139 55.519 Q 257.139 59.14 260.145 59.14 Q 263.256 59.14 264.346 56.908 L 264.346 43.249 L 268.618 43.249 L 268.618 62.269 L 264.592 62.269 Z" style="fill: rgb(51, 51, 51);"></path>
  </g>
</svg>