<svg viewBox="0 0 525 125" xmlns="http://www.w3.org/2000/svg">
  <g>
    <path d="M 63.044 10.641 H 113.044 V 60.641 H 63.044 V 10.641 Z" style="stroke: rgb(0, 0, 0); fill: rgb(200, 200, 200);"></path>
    <path d="M 9.044 64.359 H 59.044 V 114.359 H 9.044 V 64.359 Z" style="stroke: rgb(0, 0, 0); fill: rgb(200, 200, 200);"></path>
    <path d="M 9.044 10.308 L 59.044 10.308 L 59.044 60.308 L 9.044 60.308 L 9.044 10.308 Z" style="stroke: rgb(0, 0, 0); fill: none;"></path>
    <path d="M 63.044 64.359 H 113.044 V 114.359 H 63.044 V 64.359 Z" style="stroke: rgb(0, 0, 0); fill: none;"></path>
    <path d="M 46.358 20.062 L 45.242 20.962 C 46.61 22.366 47.834 23.986 48.986 25.786 L 50.174 24.922 C 49.166 23.23 47.87 21.61 46.358 20.062 Z M 42.794 22.69 L 41.678 23.59 C 43.046 24.994 44.306 26.614 45.422 28.414 L 46.61 27.55 C 45.566 25.822 44.306 24.202 42.794 22.69 Z M 38.15 24.382 L 36.35 25.39 C 38.438 28.558 40.49 32.482 42.506 37.126 C 44.558 41.914 46.07 46.378 47.042 50.482 L 49.13 50.014 C 48.122 45.802 46.574 41.266 44.486 36.406 C 42.47 31.654 40.346 27.658 38.15 24.382 Z M 26.342 25.174 C 25.982 29.71 25.118 34.066 23.678 38.242 C 22.166 42.49 20.15 46.27 17.666 49.546 L 19.646 50.554 C 22.166 47.134 24.182 43.21 25.73 38.818 C 27.17 34.57 28.07 30.106 28.466 25.426 L 26.342 25.174 Z" style="fill: rgb(51, 51, 51);"></path>
    <path d="M 88.797 91.591 C 90.705 92.815 92.829 94.435 95.133 96.415 C 97.977 98.791 100.173 100.843 101.721 102.607 L 103.377 101.203 C 101.649 99.259 99.381 97.099 96.537 94.795 C 94.305 92.923 92.145 91.303 90.129 89.935 C 92.865 86.335 95.205 82.015 97.185 76.975 L 95.817 76.003 L 76.629 76.003 L 76.629 77.983 L 94.413 77.983 C 90.201 88.423 83.073 96.091 73.029 100.987 L 74.325 102.715 C 80.085 99.799 84.837 96.163 88.581 91.843 C 88.653 91.771 88.725 91.663 88.797 91.591 Z" style="fill: rgb(51, 51, 51);"></path>
    <path d="M 138.305 107.5 L 138.305 17.5" style="fill: rgb(216, 216, 216); stroke: rgb(0, 0, 0); stroke-width: 3px;"></path>
    <path d="M 182.548 80.62 Q 181.588 80.62 181.364 79.724 L 180.916 75.66 Q 179.604 76.94 178.308 77.964 Q 177.012 78.988 175.604 79.692 Q 174.196 80.396 172.564 80.764 Q 170.932 81.132 168.98 81.132 Q 167.348 81.132 165.812 80.652 Q 164.276 80.172 163.092 79.18 Q 161.908 78.188 161.188 76.636 Q 160.468 75.084 160.468 72.908 Q 160.468 70.892 161.62 69.164 Q 162.772 67.436 165.22 66.156 Q 167.668 64.876 171.524 64.108 Q 175.38 63.34 180.788 63.212 L 180.788 59.884 Q 180.788 55.468 178.884 53.084 Q 176.98 50.7 173.236 50.7 Q 170.932 50.7 169.316 51.34 Q 167.7 51.98 166.58 52.748 Q 165.46 53.516 164.756 54.156 Q 164.052 54.796 163.572 54.796 Q 162.932 54.796 162.612 54.22 L 162.068 53.292 Q 164.564 50.796 167.316 49.516 Q 170.068 48.236 173.556 48.236 Q 176.116 48.236 178.036 49.052 Q 179.956 49.868 181.22 51.388 Q 182.484 52.908 183.124 55.068 Q 183.764 57.228 183.764 59.884 L 183.764 80.62 Z M 169.748 78.924 Q 171.604 78.924 173.156 78.524 Q 174.708 78.124 176.036 77.404 Q 177.364 76.684 178.516 75.692 Q 179.668 74.7 180.788 73.548 L 180.788 65.26 Q 176.244 65.388 172.964 65.948 Q 169.684 66.508 167.556 67.468 Q 165.428 68.428 164.42 69.756 Q 163.412 71.084 163.412 72.78 Q 163.412 74.38 163.94 75.548 Q 164.468 76.716 165.332 77.468 Q 166.196 78.22 167.348 78.572 Q 168.5 78.924 169.748 78.924 Z M 194.362 80.62 L 194.362 48.78 L 196.026 48.78 Q 196.858 48.78 196.986 49.58 L 197.274 54.38 Q 199.45 51.628 202.346 49.948 Q 205.242 48.268 208.794 48.268 Q 211.418 48.268 213.418 49.1 Q 215.418 49.932 216.73 51.5 Q 218.042 53.068 218.714 55.276 Q 219.386 57.484 219.386 60.268 L 219.386 80.62 L 216.346 80.62 L 216.346 60.268 Q 216.346 55.788 214.298 53.244 Q 212.25 50.7 208.026 50.7 Q 204.89 50.7 202.202 52.316 Q 199.514 53.932 197.402 56.748 L 197.402 80.62 Z M 233.923 48.78 L 233.923 80.62 L 230.883 80.62 L 230.883 48.78 Z M 235.267 37.804 Q 235.267 38.38 235.027 38.876 Q 234.787 39.372 234.403 39.756 Q 234.019 40.14 233.507 40.364 Q 232.995 40.588 232.419 40.588 Q 231.843 40.588 231.331 40.364 Q 230.819 40.14 230.435 39.756 Q 230.051 39.372 229.827 38.876 Q 229.603 38.38 229.603 37.804 Q 229.603 37.228 229.827 36.7 Q 230.051 36.172 230.435 35.788 Q 230.819 35.404 231.331 35.18 Q 231.843 34.956 232.419 34.956 Q 232.995 34.956 233.507 35.18 Q 234.019 35.404 234.403 35.788 Q 234.787 36.172 235.027 36.7 Q 235.267 37.228 235.267 37.804 Z M 246.186 80.62 L 246.186 48.78 L 247.786 48.78 Q 248.33 48.78 248.57 49.004 Q 248.81 49.228 248.842 49.772 L 249.098 56.492 Q 250.634 52.62 253.194 50.428 Q 255.754 48.236 259.498 48.236 Q 260.938 48.236 262.154 48.54 Q 263.37 48.844 264.458 49.42 L 264.042 51.532 Q 263.946 52.044 263.402 52.044 Q 263.21 52.044 262.858 51.916 Q 262.506 51.788 261.978 51.628 Q 261.45 51.468 260.682 51.34 Q 259.914 51.212 258.922 51.212 Q 255.306 51.212 252.986 53.452 Q 250.666 55.692 249.226 59.916 L 249.226 80.62 Z M 272.913 80.62 L 272.913 34.06 L 275.985 34.06 L 275.985 54.348 Q 278.097 51.532 280.881 49.9 Q 283.665 48.268 287.153 48.268 Q 293.009 48.268 296.289 52.316 Q 299.569 56.364 299.569 64.492 Q 299.569 67.98 298.657 71.004 Q 297.745 74.028 295.969 76.252 Q 294.193 78.476 291.617 79.756 Q 289.041 81.036 285.681 81.036 Q 282.353 81.036 279.953 79.74 Q 277.553 78.444 275.825 75.916 L 275.633 79.82 Q 275.537 80.62 274.769 80.62 Z M 286.289 50.7 Q 283.121 50.7 280.561 52.332 Q 278.001 53.964 275.985 56.876 L 275.985 73.676 Q 277.809 76.428 280.017 77.532 Q 282.225 78.636 285.105 78.636 Q 287.921 78.636 290.033 77.612 Q 292.145 76.588 293.569 74.716 Q 294.993 72.844 295.713 70.236 Q 296.433 67.628 296.433 64.492 Q 296.433 57.388 293.809 54.044 Q 291.185 50.7 286.289 50.7 Z M 328.854 80.62 Q 327.894 80.62 327.67 79.724 L 327.222 75.66 Q 325.91 76.94 324.614 77.964 Q 323.318 78.988 321.91 79.692 Q 320.502 80.396 318.87 80.764 Q 317.238 81.132 315.286 81.132 Q 313.654 81.132 312.118 80.652 Q 310.582 80.172 309.398 79.18 Q 308.214 78.188 307.494 76.636 Q 306.774 75.084 306.774 72.908 Q 306.774 70.892 307.926 69.164 Q 309.078 67.436 311.526 66.156 Q 313.974 64.876 317.83 64.108 Q 321.686 63.34 327.094 63.212 L 327.094 59.884 Q 327.094 55.468 325.19 53.084 Q 323.286 50.7 319.542 50.7 Q 317.238 50.7 315.622 51.34 Q 314.006 51.98 312.886 52.748 Q 311.766 53.516 311.062 54.156 Q 310.358 54.796 309.878 54.796 Q 309.238 54.796 308.918 54.22 L 308.374 53.292 Q 310.87 50.796 313.622 49.516 Q 316.374 48.236 319.862 48.236 Q 322.422 48.236 324.342 49.052 Q 326.262 49.868 327.526 51.388 Q 328.79 52.908 329.43 55.068 Q 330.07 57.228 330.07 59.884 L 330.07 80.62 Z M 316.054 78.924 Q 317.91 78.924 319.462 78.524 Q 321.014 78.124 322.342 77.404 Q 323.67 76.684 324.822 75.692 Q 325.974 74.7 327.094 73.548 L 327.094 65.26 Q 322.55 65.388 319.27 65.948 Q 315.99 66.508 313.862 67.468 Q 311.734 68.428 310.726 69.756 Q 309.718 71.084 309.718 72.78 Q 309.718 74.38 310.246 75.548 Q 310.774 76.716 311.638 77.468 Q 312.502 78.22 313.654 78.572 Q 314.806 78.924 316.054 78.924 Z M 340.672 80.62 L 340.672 48.78 L 342.336 48.78 Q 343.168 48.78 343.296 49.58 L 343.584 54.38 Q 345.76 51.628 348.656 49.948 Q 351.552 48.268 355.104 48.268 Q 357.728 48.268 359.728 49.1 Q 361.728 49.932 363.04 51.5 Q 364.352 53.068 365.024 55.276 Q 365.696 57.484 365.696 60.268 L 365.696 80.62 L 362.656 80.62 L 362.656 60.268 Q 362.656 55.788 360.608 53.244 Q 358.56 50.7 354.336 50.7 Q 351.2 50.7 348.512 52.316 Q 345.824 53.932 343.712 56.748 L 343.712 80.62 Z" style="fill: rgb(51, 51, 51);"></path>
    <path d="M 378.9 80.62 L 378.9 32.716 L 388.82 32.716 L 388.82 50.956 Q 390.676 49.132 393.028 48.028 Q 395.38 46.924 398.548 46.924 Q 401.14 46.924 403.348 48.044 Q 405.556 49.164 407.156 51.324 Q 408.756 53.484 409.668 56.62 Q 410.58 59.756 410.58 63.756 Q 410.58 67.5 409.54 70.668 Q 408.5 73.836 406.628 76.172 Q 404.756 78.508 402.148 79.82 Q 399.54 81.132 396.372 81.132 Q 394.9 81.132 393.732 80.844 Q 392.564 80.556 391.588 80.028 Q 390.612 79.5 389.796 78.764 Q 388.98 78.028 388.212 77.164 L 387.86 78.828 Q 387.636 79.852 387.044 80.236 Q 386.452 80.62 385.492 80.62 Z M 395.092 54.38 Q 394.004 54.38 393.124 54.588 Q 392.244 54.796 391.492 55.18 Q 390.74 55.564 390.1 56.156 Q 389.46 56.748 388.82 57.516 L 388.82 71.596 Q 389.94 72.844 391.252 73.34 Q 392.564 73.836 394.004 73.836 Q 395.38 73.836 396.532 73.292 Q 397.684 72.748 398.532 71.548 Q 399.38 70.348 399.86 68.428 Q 400.34 66.508 400.34 63.756 Q 400.34 61.132 399.956 59.34 Q 399.572 57.548 398.884 56.444 Q 398.196 55.34 397.236 54.86 Q 396.276 54.38 395.092 54.38 Z M 439.93 80.62 Q 438.522 80.62 437.802 80.236 Q 437.082 79.852 436.602 78.636 L 435.898 76.812 Q 434.65 77.868 433.498 78.668 Q 432.346 79.468 431.114 80.028 Q 429.882 80.588 428.49 80.86 Q 427.098 81.132 425.402 81.132 Q 423.13 81.132 421.274 80.54 Q 419.418 79.948 418.122 78.796 Q 416.826 77.644 416.122 75.932 Q 415.418 74.22 415.418 71.98 Q 415.418 70.22 416.314 68.364 Q 417.21 66.508 419.418 64.988 Q 421.626 63.468 425.37 62.444 Q 429.114 61.42 434.81 61.292 L 434.81 59.884 Q 434.81 56.972 433.61 55.676 Q 432.41 54.38 430.202 54.38 Q 428.442 54.38 427.322 54.764 Q 426.202 55.148 425.322 55.628 Q 424.442 56.108 423.61 56.492 Q 422.778 56.876 421.626 56.876 Q 420.602 56.876 419.882 56.38 Q 419.162 55.884 418.746 55.148 L 416.954 52.044 Q 419.962 49.388 423.626 48.092 Q 427.29 46.796 431.482 46.796 Q 434.49 46.796 436.906 47.772 Q 439.322 48.748 441.002 50.492 Q 442.682 52.236 443.578 54.636 Q 444.474 57.036 444.474 59.884 L 444.474 80.62 Z M 428.538 74.572 Q 430.458 74.572 431.898 73.9 Q 433.338 73.228 434.81 71.724 L 434.81 67.116 Q 431.834 67.244 429.914 67.628 Q 427.994 68.012 426.874 68.588 Q 425.754 69.164 425.322 69.9 Q 424.89 70.636 424.89 71.5 Q 424.89 73.196 425.818 73.884 Q 426.746 74.572 428.538 74.572 Z M 472.801 54.7 Q 472.417 55.308 471.985 55.564 Q 471.553 55.82 470.881 55.82 Q 470.177 55.82 469.473 55.516 Q 468.769 55.212 467.953 54.86 Q 467.137 54.508 466.113 54.204 Q 465.089 53.9 463.777 53.9 Q 461.889 53.9 460.881 54.62 Q 459.873 55.34 459.873 56.62 Q 459.873 57.548 460.529 58.156 Q 461.185 58.764 462.273 59.228 Q 463.361 59.692 464.737 60.108 Q 466.113 60.524 467.553 61.036 Q 468.993 61.548 470.369 62.236 Q 471.745 62.924 472.833 63.932 Q 473.921 64.94 474.577 66.38 Q 475.233 67.82 475.233 69.836 Q 475.233 72.3 474.337 74.38 Q 473.441 76.46 471.665 77.964 Q 469.889 79.468 467.281 80.3 Q 464.673 81.132 461.281 81.132 Q 459.585 81.132 457.889 80.812 Q 456.193 80.492 454.609 79.948 Q 453.025 79.404 451.681 78.652 Q 450.337 77.9 449.377 77.036 L 451.681 73.388 Q 452.097 72.748 452.673 72.38 Q 453.249 72.012 454.177 72.012 Q 455.041 72.012 455.729 72.396 Q 456.417 72.78 457.217 73.228 Q 458.017 73.676 459.089 74.06 Q 460.161 74.444 461.793 74.444 Q 462.945 74.444 463.745 74.204 Q 464.545 73.964 465.025 73.548 Q 465.505 73.132 465.729 72.62 Q 465.953 72.108 465.953 71.564 Q 465.953 70.572 465.281 69.932 Q 464.609 69.292 463.521 68.828 Q 462.433 68.364 461.041 67.964 Q 459.649 67.564 458.209 67.052 Q 456.769 66.54 455.377 65.82 Q 453.985 65.1 452.897 63.996 Q 451.809 62.892 451.137 61.292 Q 450.465 59.692 450.465 57.42 Q 450.465 55.308 451.281 53.404 Q 452.097 51.5 453.729 50.06 Q 455.361 48.62 457.825 47.772 Q 460.289 46.924 463.585 46.924 Q 465.377 46.924 467.057 47.244 Q 468.737 47.564 470.209 48.14 Q 471.681 48.716 472.897 49.5 Q 474.113 50.284 475.041 51.212 Z M 490.954 47.436 L 490.954 68.492 Q 490.954 70.956 492.074 72.3 Q 493.194 73.644 495.37 73.644 Q 497.002 73.644 498.426 72.972 Q 499.85 72.3 501.194 71.084 L 501.194 47.436 L 511.114 47.436 L 511.114 80.62 L 504.97 80.62 Q 503.114 80.62 502.538 78.956 L 501.93 77.036 Q 500.97 77.964 499.946 78.716 Q 498.922 79.468 497.754 79.996 Q 496.586 80.524 495.242 80.828 Q 493.898 81.132 492.298 81.132 Q 489.578 81.132 487.482 80.188 Q 485.386 79.244 483.946 77.548 Q 482.506 75.852 481.77 73.548 Q 481.034 71.244 481.034 68.492 L 481.034 47.436 Z" style="fill: rgb(51, 51, 51);"></path>
  </g>
</svg>